<svg xmlns="http://www.w3.org/2000/svg" viewBox="0 0 512 512" role="img" aria-label="Wangchuks Tours emblem">
  <defs>
    <linearGradient id="gold" x1="0%" y1="0%" x2="100%" y2="100%">
      <stop offset="0%" stop-color="#f0d78c"/>
      <stop offset="45%" stop-color="#c4a35a"/>
      <stop offset="100%" stop-color="#a67c3d"/>
    </linearGradient>
    <linearGradient id="goldLight" x1="0%" y1="0%" x2="0%" y2="100%">
      <stop offset="0%" stop-color="#f5e6b8"/>
      <stop offset="100%" stop-color="#c4a35a"/>
    </linearGradient>
    <filter id="glow" x="-20%" y="-20%" width="140%" height="140%">
      <feGaussianBlur stdDeviation="3" result="blur"/>
      <feMerge>
        <feMergeNode in="blur"/>
        <feMergeNode in="SourceGraphic"/>
      </feMerge>
    </filter>
  </defs>
  <rect width="512" height="512" fill="#0c1222"/>
  <g transform="translate(256 268) scale(3.6)" fill="none" stroke="url(#gold)" stroke-linecap="round" stroke-linejoin="round">
    <path d="M-52 -18 L-38 -42 L-24 -18" stroke-width="2.2" fill="none"/>
    <path d="M-24 -18 L0 -52 L24 -18" stroke-width="2.4" fill="none"/>
    <path d="M24 -18 L38 -42 L52 -18" stroke-width="2.2" fill="none"/>
    <path d="M-52 -18 L-52 8 L52 8 L52 -18" stroke-width="2" fill="none" opacity="0.85"/>
    <g fill="url(#gold)" stroke="url(#goldLight)" stroke-width="0.8" filter="url(#glow)">
      <circle cx="0" cy="-8" r="5.5" fill="url(#goldLight)" stroke="url(#gold)" stroke-width="1"/>
      <path d="M0 -13.5 L0 -28 M-4 -20 Q0 -24 4 -20 M-3.5 -26 Q0 -30 3.5 -26" stroke-width="1.6" fill="none"/>
      <path d="M-5 -28 L0 -34 L5 -28 Z" fill="url(#goldLight)" stroke="url(#gold)" stroke-width="0.8"/>
      <path d="M0 -2.5 L0 12 M-4 4 Q0 0 4 4 M-3.5 10 Q0 6 3.5 10" stroke-width="1.6" fill="none"/>
      <path d="M-5 12 L0 18 L5 12 Z" fill="url(#goldLight)" stroke="url(#gold)" stroke-width="0.8"/>
      <path d="M-5.5 -8 L-20 -8 M-12 -12 Q-16 -8 -12 -4 M-18 -11.5 Q-22 -8 -18 -4.5" stroke-width="1.6" fill="none"/>
      <path d="M-20 -13 L-26 -8 L-20 -3 Z" fill="url(#goldLight)" stroke="url(#gold)" stroke-width="0.8"/>
      <path d="M5.5 -8 L20 -8 M12 -12 Q16 -8 12 -4 M18 -11.5 Q22 -8 18 -4.5" stroke-width="1.6" fill="none"/>
      <path d="M20 -13 L26 -8 L20 -3 Z" fill="url(#goldLight)" stroke="url(#gold)" stroke-width="0.8"/>
    </g>
  </g>
</svg>
